<?xml version="1.0" encoding="utf-8"?>
<!-- Generator: Adobe Illustrator 25.4.1, SVG Export Plug-In . SVG Version: 6.00 Build 0)  -->
<svg version="1.1" id="Layer_1" xmlns="http://www.w3.org/2000/svg" xmlns:xlink="http://www.w3.org/1999/xlink" x="0px" y="0px"
	 viewBox="0 0 121.6 34.2" style="enable-background:new 0 0 121.6 34.2;" xml:space="preserve">
<style type="text/css">
	.st0{fill:#FFFFFF;}
	.st1{fill:#3D8D51;}
	.st2{fill:#58595B;}
</style>
<path class="st0" d="M14.5,2.4L2.4,6v14.3c0,3.2,8.5,9.3,12.2,11.7c3.6-2.3,11.9-8.1,12-11.2V6.4L14.5,2.4z M24.6,19.6
	c-0.1,3.6-10.1,9.7-10.1,9.7s0,0,0,0v0c0,0-0.6-0.4-1.5-1l-0.7-0.5L21,11.5h1v-1.3h-2.4l-4,7.8l-3.5-6.4l2.3,0l1.1,2
	c0,0.1,0.2,0.1,0.2,0l1.8-3.3H7.4v1.3l1,0l5.5,9.6l-3.1,5.6l-0.3-0.3c-2.8-2.3-6.2-4.8-6.2-6.9V7.7l10.1-3.1l0,0v0l10.1,3.1V19.6z"
	/>
<g>
	<path class="st1" d="M21,11.5l-8.7,16.3l0.7,0.5c0.9,0.6,1.5,1,1.5,1v0c0,0,0,0,0,0s10.1-6.1,10.1-9.7V7.7L14.4,4.5v0l0,0L4.3,7.7
		v11.9c0,2.1,3.3,4.6,6.2,6.9l0.3,0.3l3.1-5.6l-5.5-9.6l-1,0v-1.3h10.2l-1.8,3.3c0,0.1-0.2,0.1-0.2,0l-1.1-2l-2.3,0l3.5,6.4l4-7.8
		H22v1.3H21z"/>
	<path class="st1" d="M68.9,7.6l-3.4,1l0.9,0.7v5.9c-0.6,0.6-1.6,0.8-2.3,0.8c-0.9-0.1-1.4-0.9-1.4-1.9V7.6l-3.4,1l0.9,0.7v5.1
		c0,1.9,1.2,3.4,2.9,3.4c0.9,0,1.8-0.2,2.9-1c0.2-0.1,0.4-0.4,0.6-0.5l0,1.5h3.3v-1h-0.9V7.6z"/>
	<path class="st1" d="M51.6,7.6c-3.1-0.1-5.5,1.9-5.6,4.9c-0.1,3,2.1,5.1,5.2,5.2c3.1,0.1,5.5-2,5.6-4.9C56.9,9.9,54.7,7.7,51.6,7.6
		z M54.1,13.5c-0.1,2.1-1.1,3.2-2.5,3.2c-1.6-0.1-3.1-2.1-3-4.8c0.1-2.1,1.1-3.2,2.5-3.2C52.8,8.7,54.2,10.7,54.1,13.5z"/>
	<path class="st1" d="M117,21H38.6v0h-1.3l6.5-12.1h0.9V7.6h-2l-3.4,6.7l-3-5.6l2,0l1,1.7c0,0.1,0.1,0.1,0.2,0l1.5-2.9h-8.8v1.2
		l0.9,0l4.8,8.3l-2.1,3.9H34v1.5l82.6,0L117,21z"/>
</g>
<g>
	<path class="st2" d="M14.5,33.4c-0.1,0-0.2,0-0.4-0.1C12.8,32.5,1,24.8,1,20.3V5.5c0-0.3,0.2-0.6,0.5-0.6l12.8-3.8
		c0.1,0,0.3,0,0.4,0l12.6,4.2c0.3,0.1,0.5,0.3,0.5,0.6v14.8c-0.1,4.6-11.6,11.8-13,12.6C14.8,33.4,14.7,33.4,14.5,33.4z M2.4,6v14.3
		c0,3.2,8.5,9.3,12.2,11.7c3.6-2.3,11.9-8.1,12-11.2V6.4l-12-4L2.4,6z"/>
	<path class="st2" d="M82.5,10.6c0-1.9-1.2-3-2.9-3c-1,0-2.2,0.6-3.6,1.7l0-1.6l-3.4,1l0.9,0.7v7.4h-0.9v1H77v-1h-0.9v-6.3
		c0.8-0.8,1.7-1.1,2.5-1.1c0.9,0,1.5,0.5,1.5,1.5v5.9h-0.9v1h4.3v-1h-0.9V10.6z"/>
	<path class="st2" d="M88.3,7c0.8,0,1.4-0.6,1.4-1.4c0-0.8-0.6-1.4-1.4-1.4c-0.8,0-1.4,0.7-1.4,1.4C86.8,6.3,87.5,7,88.3,7z"/>
	<polygon class="st2" points="89.6,7.6 86.2,8.6 87.1,9.3 87.1,16.7 86.2,16.7 86.2,17.7 90.5,17.7 90.5,16.7 89.6,16.7 	"/>
	<path class="st2" d="M98.5,7.6c-3.1-0.1-5.5,1.9-5.6,4.9c-0.1,3,2.1,5.1,5.2,5.2c3.1,0.1,5.5-2,5.6-4.9
		C103.8,9.9,101.6,7.7,98.5,7.6z M101,13.5c-0.1,2.1-1.1,3.2-2.5,3.2c-1.6-0.1-3.1-2.1-3-4.8c0.1-2.1,1.1-3.2,2.5-3.2
		C99.7,8.7,101.2,10.7,101,13.5z"/>
	<path class="st2" d="M116.1,16.7v-6.2c0-1.9-1.2-3-2.9-3c-1,0-2.2,0.6-3.6,1.7l0-1.6l-3.4,1l0.9,0.7v7.4h-0.9v1h4.3v-1h-0.9v-6.3
		c0.8-0.8,1.7-1.1,2.5-1.1c0.9,0,1.5,0.5,1.5,1.5v5.9h-0.9v1h4.3v-1H116.1z"/>
	<path class="st2" d="M119,31.1v-0.8h-0.3v-0.1h0.7v0.1h-0.3v0.8H119z"/>
	<path class="st2" d="M119.5,31.1v-1h0.2l0.2,0.7c0,0.1,0,0.1,0,0.1c0,0,0-0.1,0-0.2l0.2-0.7h0.2v1h-0.1v-0.8l-0.3,0.8h-0.1
		l-0.3-0.8v0.8H119.5z"/>
</g>
<g>
	<path class="st2" d="M76.3,25.8h1.3l-0.1,0.6c0.3-0.2,0.6-0.4,0.8-0.5c0.3-0.1,0.5-0.2,0.8-0.2c0.6,0,1,0.2,1.4,0.6s0.5,1,0.5,1.8
		c0,1-0.3,1.8-0.9,2.5c-0.5,0.6-1.1,0.9-1.8,0.9c-0.7,0-1.3-0.3-1.7-0.9l-0.6,2.9h-1.4L76.3,25.8z M77.1,28.9c0,0.4,0.1,0.8,0.3,1
		s0.5,0.4,0.7,0.4c0.2,0,0.5-0.1,0.7-0.3c0.2-0.2,0.4-0.5,0.6-0.9c0.2-0.4,0.2-0.8,0.2-1.2c0-0.4-0.1-0.7-0.3-0.9
		c-0.2-0.2-0.4-0.3-0.8-0.3c-0.3,0-0.5,0.1-0.8,0.3c-0.2,0.2-0.4,0.5-0.5,0.9C77.2,28.3,77.1,28.6,77.1,28.9z"/>
	<path class="st2" d="M81.8,29c0-1,0.3-1.8,0.9-2.4c0.6-0.6,1.3-0.9,2.3-0.9c0.8,0,1.5,0.2,1.9,0.7c0.5,0.4,0.7,1.1,0.7,1.8
		c0,0.9-0.3,1.7-0.9,2.3c-0.6,0.7-1.3,1-2.3,1c-0.5,0-1-0.1-1.4-0.3s-0.7-0.5-0.9-0.9C81.9,29.8,81.8,29.4,81.8,29z M86.1,27.9
		c0-0.4-0.1-0.6-0.3-0.9c-0.2-0.2-0.5-0.3-0.8-0.3c-0.3,0-0.6,0.1-0.9,0.3c-0.2,0.2-0.4,0.5-0.6,0.9c-0.1,0.4-0.2,0.7-0.2,1
		c0,0.4,0.1,0.7,0.3,0.9c0.2,0.2,0.5,0.3,0.8,0.3c0.4,0,0.8-0.2,1-0.5C85.9,29.2,86.1,28.6,86.1,27.9z"/>
	<path class="st2" d="M93.9,31.3h-1.4l-0.3-3.5l-1.7,3.5h-1.4l-0.7-5.5h1.3l0.4,3.7l1.7-3.7h1.4l0.2,3.7l1.7-3.7h1.5L93.9,31.3z"/>
	<path class="st2" d="M101.8,29H98c0,0.1,0,0.1,0,0.1c0,0.4,0.1,0.7,0.3,0.9s0.5,0.3,0.8,0.3c0.5,0,0.9-0.3,1.2-0.8l1.3,0.2
		c-0.3,0.5-0.6,0.9-1,1.2c-0.4,0.3-0.9,0.4-1.5,0.4c-0.7,0-1.3-0.2-1.8-0.7c-0.5-0.5-0.7-1.1-0.7-1.9c0-0.8,0.2-1.4,0.6-2
		c0.6-0.8,1.4-1.2,2.5-1.2c0.7,0,1.2,0.2,1.6,0.6c0.4,0.4,0.6,1,0.6,1.8C101.9,28.4,101.9,28.7,101.8,29z M100.5,28.1
		c0-0.1,0-0.1,0-0.2c0-0.4-0.1-0.7-0.3-0.9s-0.4-0.3-0.7-0.3c-0.3,0-0.6,0.1-0.8,0.3c-0.2,0.2-0.4,0.6-0.5,1H100.5z"/>
	<path class="st2" d="M103.4,25.8h1.4l-0.2,1.1c0.5-0.8,1.1-1.2,1.7-1.2c0.2,0,0.4,0.1,0.7,0.2l-0.6,1.2c-0.1,0-0.3-0.1-0.4-0.1
		c-0.3,0-0.5,0.1-0.8,0.3c-0.3,0.2-0.5,0.5-0.6,0.8c-0.1,0.3-0.3,0.8-0.4,1.5l-0.4,1.7h-1.5L103.4,25.8z"/>
	<path class="st2" d="M111.9,29h-3.7c0,0.1,0,0.1,0,0.1c0,0.4,0.1,0.7,0.3,0.9s0.5,0.3,0.8,0.3c0.5,0,0.9-0.3,1.2-0.8l1.3,0.2
		c-0.3,0.5-0.6,0.9-1,1.2c-0.4,0.3-0.9,0.4-1.5,0.4c-0.7,0-1.3-0.2-1.8-0.7c-0.5-0.5-0.7-1.1-0.7-1.9c0-0.8,0.2-1.4,0.6-2
		c0.6-0.8,1.4-1.2,2.5-1.2c0.7,0,1.2,0.2,1.6,0.6c0.4,0.4,0.6,1,0.6,1.8C112,28.4,111.9,28.7,111.9,29z M110.6,28.1
		c0-0.1,0-0.1,0-0.2c0-0.4-0.1-0.7-0.3-0.9s-0.4-0.3-0.7-0.3c-0.3,0-0.6,0.1-0.8,0.3c-0.2,0.2-0.4,0.6-0.5,1H110.6z"/>
	<path class="st2" d="M117.3,31.3h-1.2l0.1-0.6c-0.3,0.3-0.5,0.4-0.8,0.6c-0.3,0.1-0.6,0.2-0.9,0.2c-0.6,0-1-0.2-1.4-0.6
		c-0.4-0.4-0.5-1-0.5-1.7c0-0.9,0.2-1.7,0.7-2.4c0.5-0.7,1.2-1.1,2-1.1c0.7,0,1.3,0.3,1.7,0.9l1.3-5.6h1.3L117.3,31.3z M114.1,29
		c0,0.4,0.1,0.7,0.3,0.9c0.2,0.2,0.4,0.3,0.7,0.3c0.3,0,0.5-0.1,0.8-0.3c0.2-0.2,0.4-0.5,0.6-0.9c0.1-0.4,0.2-0.7,0.2-1.1
		c0-0.4-0.1-0.7-0.3-1c-0.2-0.2-0.5-0.4-0.7-0.4c-0.4,0-0.8,0.2-1.1,0.7C114.2,28,114.1,28.5,114.1,29z"/>
</g>
</svg>
